<svg width="20" height="20" viewBox="0 0 20 20" fill="none" xmlns="http://www.w3.org/2000/svg">
<path d="M18.75 16.25H17.5V10.625L17.6828 10.8078C17.8003 10.9251 17.9596 10.9909 18.1256 10.9908C18.2916 10.9906 18.4507 10.9245 18.568 10.8071C18.6852 10.6896 18.751 10.5303 18.7509 10.3643C18.7508 10.1983 18.6847 10.0392 18.5672 9.92189L10.8836 2.24064C10.6492 2.0064 10.3314 1.87482 10 1.87482C9.66862 1.87482 9.3508 2.0064 9.11641 2.24064L1.43281 9.92189C1.31564 10.0392 1.24986 10.1982 1.24993 10.364C1.25 10.5297 1.31593 10.6887 1.4332 10.8059C1.55048 10.923 1.7095 10.9888 1.87528 10.9888C2.04106 10.9887 2.20002 10.9228 2.31719 10.8055L2.5 10.625V16.25H1.25C1.08424 16.25 0.925268 16.3159 0.808058 16.4331C0.690848 16.5503 0.625 16.7093 0.625 16.875C0.625 17.0408 0.690848 17.1997 0.808058 17.317C0.925268 17.4342 1.08424 17.5 1.25 17.5H18.75C18.9158 17.5 19.0747 17.4342 19.1919 17.317C19.3092 17.1997 19.375 17.0408 19.375 16.875C19.375 16.7093 19.3092 16.5503 19.1919 16.4331C19.0747 16.3159 18.9158 16.25 18.75 16.25ZM3.75 9.37502L10 3.12502L16.25 9.37502V16.25H12.5V11.875C12.5 11.7093 12.4342 11.5503 12.3169 11.4331C12.1997 11.3159 12.0408 11.25 11.875 11.25H8.125C7.95924 11.25 7.80027 11.3159 7.68306 11.4331C7.56585 11.5503 7.5 11.7093 7.5 11.875V16.25H3.75V9.37502ZM11.25 16.25H8.75V12.5H11.25V16.25Z" fill="#7E8986"/>
</svg>
