<svg width="12" height="16" viewBox="0 0 12 16" fill="none" xmlns="http://www.w3.org/2000/svg">
<path d="M9.02068 0.299786C8.91071 0.311013 8.84855 0.367148 7.09376 2.01007C6.47696 2.58641 5.75975 3.26005 5.49199 3.50705C5.22423 3.75405 4.34445 4.57738 3.5316 5.34083C2.71398 6.10055 1.68597 7.06235 1.24608 7.47402C0.80141 7.88569 0.404552 8.2749 0.366301 8.33852C0.227639 8.56307 0.399771 8.86994 0.753596 9.01964C0.882694 9.07578 1.10742 9.08701 2.41275 9.10197L3.92368 9.12069L4.10059 9.22922C4.201 9.2891 4.31576 9.39763 4.35879 9.47248C4.44007 9.62217 4.43529 9.62966 3.67983 11.9275C3.51248 12.4402 3.17778 13.4582 2.93871 14.1842C2.61357 15.1684 2.51316 15.5202 2.54663 15.5726C2.61835 15.6737 2.84308 15.7373 2.9913 15.6924C3.05824 15.6737 3.47901 15.3107 3.94281 14.8803C4.40182 14.4499 5.10947 13.7875 5.51589 13.4058C5.9271 13.024 6.76385 12.2419 7.38065 11.6655C7.99745 11.0892 8.71945 10.4156 8.98243 10.1686C10.742 8.52938 11.4544 7.85575 11.5644 7.73599C11.7461 7.52267 11.7174 7.33555 11.4735 7.12597C11.2393 6.92014 11.201 6.9164 9.57054 6.89394L8.05961 6.87523L7.87314 6.75922C7.76795 6.69185 7.66275 6.58332 7.6245 6.49724C7.56234 6.35503 7.58147 6.29141 8.07396 4.79818C9.59923 0.150088 9.49404 0.494391 9.41754 0.40083C9.34582 0.314754 9.20237 0.277331 9.02068 0.299786Z" fill="#FFBC00"/>
</svg>
