<svg width="1028" height="126" viewBox="0 0 1028 126" fill="none" xmlns="http://www.w3.org/2000/svg">
<path d="M3.81981 14.38V12.856L4.03581 13.06C3.45981 13.052 2.91581 12.968 2.40381 12.808C1.89181 12.64 1.44381 12.388 1.05981 12.052L1.41981 11.26C1.80381 11.572 2.20781 11.804 2.63181 11.956C3.05581 12.108 3.55181 12.184 4.11981 12.184C4.80781 12.184 5.31981 12.052 5.65581 11.788C5.99181 11.516 6.15981 11.168 6.15981 10.744C6.15981 10.4 6.03581 10.128 5.78781 9.928C5.54781 9.72 5.14781 9.556 4.58781 9.436L3.38781 9.184C2.65981 9.024 2.11981 8.764 1.76781 8.404C1.41581 8.036 1.23981 7.552 1.23981 6.952C1.23981 6.488 1.35181 6.076 1.57581 5.716C1.80781 5.348 2.12781 5.06 2.53581 4.852C2.94381 4.636 3.41981 4.516 3.96381 4.492L3.81981 4.66V3.16H4.63581V4.66L4.47981 4.492C4.90381 4.508 5.33581 4.6 5.77581 4.768C6.21581 4.936 6.58781 5.188 6.89181 5.524L6.55581 6.292C6.23581 5.964 5.87981 5.728 5.48781 5.584C5.09581 5.432 4.65981 5.356 4.17981 5.356C3.57181 5.356 3.08781 5.5 2.72781 5.788C2.36781 6.076 2.18781 6.456 2.18781 6.928C2.18781 7.296 2.29981 7.592 2.52381 7.816C2.75581 8.04 3.12781 8.204 3.63981 8.308L4.83981 8.572C5.61581 8.732 6.19181 8.984 6.56781 9.328C6.94381 9.664 7.13181 10.12 7.13181 10.696C7.13181 11.152 7.01581 11.552 6.78381 11.896C6.55181 12.232 6.23581 12.5 5.83581 12.7C5.43581 12.892 4.97181 13.008 4.44381 13.048L4.63581 12.844V14.38H3.81981ZM14.944 13V11.164H10.912V10.444L15.1 4.54H15.916V10.36H17.212V11.164H15.916V13H14.944ZM14.944 10.36V5.716H15.208L11.728 10.612V10.36H14.944ZM18.3153 13V4.54H19.1793L22.5753 12.208H22.2273L25.6233 4.54H26.4873V13H25.5753V5.824H25.9353L22.7313 13H22.0713L18.8553 5.824H19.2153V13H18.3153Z" fill="#6B7583"/>
<path d="M3.81981 41.88V40.356L4.03581 40.56C3.45981 40.552 2.91581 40.468 2.40381 40.308C1.89181 40.14 1.44381 39.888 1.05981 39.552L1.41981 38.76C1.80381 39.072 2.20781 39.304 2.63181 39.456C3.05581 39.608 3.55181 39.684 4.11981 39.684C4.80781 39.684 5.31981 39.552 5.65581 39.288C5.99181 39.016 6.15981 38.668 6.15981 38.244C6.15981 37.9 6.03581 37.628 5.78781 37.428C5.54781 37.22 5.14781 37.056 4.58781 36.936L3.38781 36.684C2.65981 36.524 2.11981 36.264 1.76781 35.904C1.41581 35.536 1.23981 35.052 1.23981 34.452C1.23981 33.988 1.35181 33.576 1.57581 33.216C1.80781 32.848 2.12781 32.56 2.53581 32.352C2.94381 32.136 3.41981 32.016 3.96381 31.992L3.81981 32.16V30.66H4.63581V32.16L4.47981 31.992C4.90381 32.008 5.33581 32.1 5.77581 32.268C6.21581 32.436 6.58781 32.688 6.89181 33.024L6.55581 33.792C6.23581 33.464 5.87981 33.228 5.48781 33.084C5.09581 32.932 4.65981 32.856 4.17981 32.856C3.57181 32.856 3.08781 33 2.72781 33.288C2.36781 33.576 2.18781 33.956 2.18781 34.428C2.18781 34.796 2.29981 35.092 2.52381 35.316C2.75581 35.54 3.12781 35.704 3.63981 35.808L4.83981 36.072C5.61581 36.232 6.19181 36.484 6.56781 36.828C6.94381 37.164 7.13181 37.62 7.13181 38.196C7.13181 38.652 7.01581 39.052 6.78381 39.396C6.55181 39.732 6.23581 40 5.83581 40.2C5.43581 40.392 4.97181 40.508 4.44381 40.548L4.63581 40.344V41.88H3.81981ZM13.864 40.608C13.296 40.608 12.752 40.52 12.232 40.344C11.712 40.168 11.276 39.916 10.924 39.588L11.296 38.82C11.688 39.14 12.092 39.372 12.508 39.516C12.924 39.66 13.372 39.732 13.852 39.732C14.484 39.732 14.964 39.6 15.292 39.336C15.62 39.064 15.784 38.668 15.784 38.148C15.784 37.652 15.616 37.276 15.28 37.02C14.944 36.756 14.452 36.624 13.804 36.624H12.532V35.796H13.72C14.28 35.796 14.724 35.652 15.052 35.364C15.38 35.076 15.544 34.684 15.544 34.188C15.544 33.74 15.392 33.4 15.088 33.168C14.792 32.928 14.364 32.808 13.804 32.808C12.892 32.808 12.104 33.132 11.44 33.78L11.068 33C11.396 32.664 11.808 32.404 12.304 32.22C12.8 32.028 13.32 31.932 13.864 31.932C14.696 31.932 15.348 32.124 15.82 32.508C16.292 32.892 16.528 33.424 16.528 34.104C16.528 34.624 16.38 35.072 16.084 35.448C15.788 35.816 15.388 36.068 14.884 36.204V36.072C15.484 36.168 15.948 36.408 16.276 36.792C16.604 37.168 16.768 37.644 16.768 38.22C16.768 38.956 16.508 39.54 15.988 39.972C15.476 40.396 14.768 40.608 13.864 40.608ZM18.3153 40.5V32.04H19.1793L22.5753 39.708H22.2273L25.6233 32.04H26.4873V40.5H25.5753V33.324H25.9353L22.7313 40.5H22.0713L18.8553 33.324H19.2153V40.5H18.3153Z" fill="#6B7583"/>
<path d="M3.81981 69.38V67.856L4.03581 68.06C3.45981 68.052 2.91581 67.968 2.40381 67.808C1.89181 67.64 1.44381 67.388 1.05981 67.052L1.41981 66.26C1.80381 66.572 2.20781 66.804 2.63181 66.956C3.05581 67.108 3.55181 67.184 4.11981 67.184C4.80781 67.184 5.31981 67.052 5.65581 66.788C5.99181 66.516 6.15981 66.168 6.15981 65.744C6.15981 65.4 6.03581 65.128 5.78781 64.928C5.54781 64.72 5.14781 64.556 4.58781 64.436L3.38781 64.184C2.65981 64.024 2.11981 63.764 1.76781 63.404C1.41581 63.036 1.23981 62.552 1.23981 61.952C1.23981 61.488 1.35181 61.076 1.57581 60.716C1.80781 60.348 2.12781 60.06 2.53581 59.852C2.94381 59.636 3.41981 59.516 3.96381 59.492L3.81981 59.66V58.16H4.63581V59.66L4.47981 59.492C4.90381 59.508 5.33581 59.6 5.77581 59.768C6.21581 59.936 6.58781 60.188 6.89181 60.524L6.55581 61.292C6.23581 60.964 5.87981 60.728 5.48781 60.584C5.09581 60.432 4.65981 60.356 4.17981 60.356C3.57181 60.356 3.08781 60.5 2.72781 60.788C2.36781 61.076 2.18781 61.456 2.18781 61.928C2.18781 62.296 2.29981 62.592 2.52381 62.816C2.75581 63.04 3.12781 63.204 3.63981 63.308L4.83981 63.572C5.61581 63.732 6.19181 63.984 6.56781 64.328C6.94381 64.664 7.13181 65.12 7.13181 65.696C7.13181 66.152 7.01581 66.552 6.78381 66.896C6.55181 67.232 6.23581 67.5 5.83581 67.7C5.43581 67.892 4.97181 68.008 4.44381 68.048L4.63581 67.844V69.38H3.81981ZM11.344 68V67.256L14.344 64.124C14.736 63.716 15.028 63.328 15.22 62.96C15.42 62.584 15.52 62.196 15.52 61.796C15.52 61.308 15.368 60.94 15.064 60.692C14.76 60.436 14.32 60.308 13.744 60.308C13.296 60.308 12.88 60.388 12.496 60.548C12.12 60.7 11.756 60.944 11.404 61.28L11.044 60.5C11.364 60.18 11.772 59.924 12.268 59.732C12.764 59.532 13.288 59.432 13.84 59.432C14.696 59.432 15.356 59.632 15.82 60.032C16.284 60.424 16.516 60.984 16.516 61.712C16.516 62.248 16.384 62.76 16.12 63.248C15.864 63.728 15.488 64.224 14.992 64.736L12.34 67.424V67.148H16.876V68H11.344ZM18.3153 68V59.54H19.1793L22.5753 67.208H22.2273L25.6233 59.54H26.4873V68H25.5753V60.824H25.9353L22.7313 68H22.0713L18.8553 60.824H19.2153V68H18.3153Z" fill="#6B7583"/>
<path d="M3.81981 96.88V95.356L4.03581 95.56C3.45981 95.552 2.91581 95.468 2.40381 95.308C1.89181 95.14 1.44381 94.888 1.05981 94.552L1.41981 93.76C1.80381 94.072 2.20781 94.304 2.63181 94.456C3.05581 94.608 3.55181 94.684 4.11981 94.684C4.80781 94.684 5.31981 94.552 5.65581 94.288C5.99181 94.016 6.15981 93.668 6.15981 93.244C6.15981 92.9 6.03581 92.628 5.78781 92.428C5.54781 92.22 5.14781 92.056 4.58781 91.936L3.38781 91.684C2.65981 91.524 2.11981 91.264 1.76781 90.904C1.41581 90.536 1.23981 90.052 1.23981 89.452C1.23981 88.988 1.35181 88.576 1.57581 88.216C1.80781 87.848 2.12781 87.56 2.53581 87.352C2.94381 87.136 3.41981 87.016 3.96381 86.992L3.81981 87.16V85.66H4.63581V87.16L4.47981 86.992C4.90381 87.008 5.33581 87.1 5.77581 87.268C6.21581 87.436 6.58781 87.688 6.89181 88.024L6.55581 88.792C6.23581 88.464 5.87981 88.228 5.48781 88.084C5.09581 87.932 4.65981 87.856 4.17981 87.856C3.57181 87.856 3.08781 88 2.72781 88.288C2.36781 88.576 2.18781 88.956 2.18781 89.428C2.18781 89.796 2.29981 90.092 2.52381 90.316C2.75581 90.54 3.12781 90.704 3.63981 90.808L4.83981 91.072C5.61581 91.232 6.19181 91.484 6.56781 91.828C6.94381 92.164 7.13181 92.62 7.13181 93.196C7.13181 93.652 7.01581 94.052 6.78381 94.396C6.55181 94.732 6.23581 95 5.83581 95.2C5.43581 95.392 4.97181 95.508 4.44381 95.548L4.63581 95.344V96.88H3.81981ZM11.836 95.5V94.648H13.828V87.892H14.356L12.028 89.344V88.348L14.104 87.04H14.824V94.648H16.696V95.5H11.836ZM18.3153 95.5V87.04H19.1793L22.5753 94.708H22.2273L25.6233 87.04H26.4873V95.5H25.5753V88.324H25.9353L22.7313 95.5H22.0713L18.8553 88.324H19.2153V95.5H18.3153Z" fill="#6B7583"/>
<path d="M3.81981 124.38V122.856L4.03581 123.06C3.45981 123.052 2.91581 122.968 2.40381 122.808C1.89181 122.64 1.44381 122.388 1.05981 122.052L1.41981 121.26C1.80381 121.572 2.20781 121.804 2.63181 121.956C3.05581 122.108 3.55181 122.184 4.11981 122.184C4.80781 122.184 5.31981 122.052 5.65581 121.788C5.99181 121.516 6.15981 121.168 6.15981 120.744C6.15981 120.4 6.03581 120.128 5.78781 119.928C5.54781 119.72 5.14781 119.556 4.58781 119.436L3.38781 119.184C2.65981 119.024 2.11981 118.764 1.76781 118.404C1.41581 118.036 1.23981 117.552 1.23981 116.952C1.23981 116.488 1.35181 116.076 1.57581 115.716C1.80781 115.348 2.12781 115.06 2.53581 114.852C2.94381 114.636 3.41981 114.516 3.96381 114.492L3.81981 114.66V113.16H4.63581V114.66L4.47981 114.492C4.90381 114.508 5.33581 114.6 5.77581 114.768C6.21581 114.936 6.58781 115.188 6.89181 115.524L6.55581 116.292C6.23581 115.964 5.87981 115.728 5.48781 115.584C5.09581 115.432 4.65981 115.356 4.17981 115.356C3.57181 115.356 3.08781 115.5 2.72781 115.788C2.36781 116.076 2.18781 116.456 2.18781 116.928C2.18781 117.296 2.29981 117.592 2.52381 117.816C2.75581 118.04 3.12781 118.204 3.63981 118.308L4.83981 118.572C5.61581 118.732 6.19181 118.984 6.56781 119.328C6.94381 119.664 7.13181 120.12 7.13181 120.696C7.13181 121.152 7.01581 121.552 6.78381 121.896C6.55181 122.232 6.23581 122.5 5.83581 122.7C5.43581 122.892 4.97181 123.008 4.44381 123.048L4.63581 122.844V124.38H3.81981ZM13.912 123.108C12.952 123.108 12.216 122.736 11.704 121.992C11.192 121.248 10.936 120.172 10.936 118.764C10.936 117.348 11.192 116.272 11.704 115.536C12.216 114.8 12.952 114.432 13.912 114.432C14.88 114.432 15.616 114.8 16.12 115.536C16.632 116.272 16.888 117.344 16.888 118.752C16.888 120.168 16.632 121.248 16.12 121.992C15.608 122.736 14.872 123.108 13.912 123.108ZM13.912 122.244C14.584 122.244 15.084 121.96 15.412 121.392C15.74 120.824 15.904 119.944 15.904 118.752C15.904 117.552 15.74 116.676 15.412 116.124C15.084 115.564 14.584 115.284 13.912 115.284C13.248 115.284 12.748 115.564 12.412 116.124C12.084 116.684 11.92 117.56 11.92 118.752C11.92 119.944 12.084 120.824 12.412 121.392C12.748 121.96 13.248 122.244 13.912 122.244ZM18.3153 123V114.54H19.1793L22.5753 122.208H22.2273L25.6233 114.54H26.4873V123H25.5753V115.824H25.9353L22.7313 123H22.0713L18.8553 115.824H19.2153V123H18.3153Z" fill="#6B7583"/>
<g clip-path="url(#clip0_5095_1697)">
<path d="M43.5078 37H1027.51" stroke="#EDEDED"/>
<path d="M43.5078 65H1027.51" stroke="#EDEDED"/>
<path d="M43.5078 94H1027.51" stroke="#EDEDED"/>
<path d="M79.0096 116.776C221.155 92.9113 520.402 31.8975 676.036 44.3489C831.67 56.8002 956.696 86.8898 999.755 100.378" stroke="#9A66ED" stroke-width="2" stroke-linecap="round"/>
<path d="M79.0098 131.043C221.156 107.178 521.381 -10.7758 677.015 1.67554C800.511 1.67554 956.758 41.9868 999.816 55.4752" stroke="#EC6153" stroke-width="2" stroke-linecap="round"/>
<path d="M122.707 2L122.707 125" stroke="#D1D3DA" stroke-opacity="0.56"/>
<path d="M293.508 2L293.508 125" stroke="#D1D3DA" stroke-opacity="0.56"/>
<path d="M453.508 2L453.508 125" stroke="#D1D3DA" stroke-opacity="0.56"/>
<path d="M779.508 2L779.508 125" stroke="#D1D3DA" stroke-opacity="0.56"/>
<path d="M625.508 2L625.508 125" stroke="#D1D3DA" stroke-opacity="0.56"/>
<path d="M998.508 2L998.508 125" stroke="#D1D3DA" stroke-opacity="0.56"/>
</g>
<defs>
<clipPath id="clip0_5095_1697">
<rect width="984" height="126" fill="white" transform="translate(43.5078)"/>
</clipPath>
</defs>
</svg>
