<svg width="33" height="32" viewBox="0 0 33 32" fill="none" xmlns="http://www.w3.org/2000/svg">
<g filter="url(#filter0_d_5204_403)">
<g clip-path="url(#clip0_5204_403)">
<rect x="2.42578" y="2" width="28" height="28" rx="6" fill="url(#paint0_linear_5204_403)"/>
<path fill-rule="evenodd" clip-rule="evenodd" d="M7.9757 2V7.54987H2.42578V7.64987H7.9757V8.38496C6.76856 9.72361 5.875 11.3505 5.41075 13.15H2.42578V13.25H5.38544C5.16681 14.1306 5.05078 15.0518 5.05078 16C5.05078 16.9482 5.1668 17.8693 5.38542 18.7499H2.42578V18.8499H5.41073C5.87497 20.6494 6.76854 22.2764 7.9757 23.615V24.35H2.42578V24.45H7.9757V30H8.0757V24.45H8.81069C10.1494 25.6572 11.7763 26.5508 13.5758 27.015V30H13.6758V27.0403C14.5564 27.259 15.4776 27.375 16.4258 27.375C17.374 27.375 18.2951 27.259 19.1757 27.0403V30H19.2757V27.015C21.0752 26.5508 22.7022 25.6572 24.0409 24.45H24.7759V30H24.8759V24.45H30.4258V24.35H24.8759V23.615C26.083 22.2764 26.9766 20.6494 27.4408 18.8499H30.4258V18.7499H27.4661C27.6848 17.8693 27.8008 16.9482 27.8008 16C27.8008 15.0518 27.6848 14.1306 27.4661 13.25H30.4258V13.15H27.4408C26.9766 11.3505 26.083 9.72361 24.8759 8.38496V7.64987H30.4258V7.54987H24.8759V2H24.7759V7.54987H24.0408C22.7021 6.34275 21.0752 5.4492 19.2757 4.98496V2H19.1757V4.95965C18.2951 4.74102 17.374 4.625 16.4258 4.625C15.4776 4.625 14.5564 4.74102 13.6758 4.95965V2H13.5758V4.98496C11.7764 5.4492 10.1494 6.34275 8.81079 7.54987H8.0757V2H7.9757ZM8.70133 7.64987H8.0757V8.2755C8.27609 8.05898 8.48481 7.85027 8.70133 7.64987ZM8.0757 8.42349C8.32097 8.15334 8.57916 7.89514 8.84932 7.64987H13.5758V13.15H8.0757L8.0757 8.42349ZM7.9757 8.5351C6.82233 9.8397 5.9664 11.4134 5.51408 13.15H7.9757L7.9757 8.5351ZM5.48853 13.25C5.26792 14.1302 5.15078 15.0514 5.15078 16C5.15078 16.9486 5.26792 17.8698 5.48851 18.7499H7.9757V13.25H5.48853ZM5.51406 18.8499C5.96637 20.5866 6.82231 22.1603 7.9757 23.4649L7.9757 18.8499H5.51406ZM8.0757 23.7245V24.35H8.70123C8.48474 24.1497 8.27606 23.941 8.0757 23.7245ZM8.84922 24.35C8.5791 24.1048 8.32094 23.8466 8.0757 23.5765L8.0757 18.8499H13.5758V24.35H8.84922ZM8.96084 24.45C10.2655 25.6034 11.8392 26.4594 13.5758 26.9117V24.45H8.96084ZM13.6758 26.9373C14.556 27.1579 15.4772 27.275 16.4258 27.275C17.3744 27.275 18.2956 27.1579 19.1757 26.9373V24.45H13.6758V26.9373ZM19.2757 26.9117C21.0124 26.4594 22.5861 25.6034 23.8907 24.45H19.2757V26.9117ZM24.1503 24.35H24.7759V23.7245C24.5755 23.941 24.3668 24.1497 24.1503 24.35ZM24.7759 23.5765C24.5306 23.8466 24.2725 24.1048 24.0023 24.35H19.2757V18.8499H24.7759V23.5765ZM24.8759 23.4649C26.0293 22.1603 26.8852 20.5866 27.3375 18.8499H24.8759V23.4649ZM27.3631 18.7499C27.5836 17.8698 27.7008 16.9486 27.7008 16C27.7008 15.0514 27.5836 14.1302 27.363 13.25H24.8759V18.7499H27.3631ZM27.3375 13.15C26.8852 11.4134 26.0292 9.8397 24.8759 8.5351V13.15H27.3375ZM24.7759 8.2755V7.64987H24.1502C24.3668 7.85027 24.5755 8.05898 24.7759 8.2755ZM24.0022 7.64987C24.2724 7.89514 24.5306 8.15334 24.7759 8.42349V13.15H19.2757V7.64987H24.0022ZM23.8906 7.54987C22.586 6.39652 21.0123 5.5406 19.2757 5.08829V7.54987H23.8906ZM19.1757 5.06274C18.2956 4.84214 17.3744 4.725 16.4258 4.725C15.4772 4.725 14.556 4.84214 13.6758 5.06274V7.54987H19.1757V5.06274ZM13.5758 5.08829V7.54987H8.96093C10.2655 6.39652 11.8392 5.5406 13.5758 5.08829ZM13.6758 13.15V7.64987H19.1757V13.15H13.6758ZM19.2757 13.25H24.7759V18.7499H19.2757V13.25ZM19.1757 18.8499V24.35H13.6758V18.8499H19.1757ZM13.5758 18.7499H8.0757V13.25H13.5758L13.5758 18.7499ZM13.6758 18.7499L13.6758 13.25H19.1757L19.1757 18.7499H13.6758Z" fill="url(#paint1_linear_5204_403)"/>
<path d="M12.2554 9.87556C12.4577 9.04148 13.6439 9.04148 13.8462 9.87556L14.4027 12.1706C14.4749 12.4684 14.7074 12.7009 15.0052 12.7731L17.3002 13.3296C18.1343 13.5319 18.1343 14.7181 17.3002 14.9204L15.0052 15.4769C14.7074 15.5491 14.4749 15.7816 14.4027 16.0794L13.8462 18.3744C13.6439 19.2085 12.4577 19.2085 12.2554 18.3744L11.6989 16.0794C11.6267 15.7816 11.3942 15.5491 11.0964 15.4769L8.80134 14.9204C7.96726 14.7181 7.96726 13.5319 8.80134 13.3296L11.0964 12.7731C11.3942 12.7009 11.6267 12.4684 11.6989 12.1706L12.2554 9.87556Z" fill="white"/>
<path d="M18.9363 17.885C19.0608 17.3717 19.7908 17.3717 19.9152 17.885L20.2577 19.2973C20.3022 19.4805 20.4452 19.6236 20.6285 19.6681L22.0408 20.0105C22.5541 20.135 22.5541 20.865 22.0408 20.9895L20.6285 21.3319C20.4452 21.3764 20.3022 21.5195 20.2577 21.7027L19.9152 23.115C19.7908 23.6283 19.0608 23.6283 18.9363 23.115L18.5938 21.7027C18.5494 21.5195 18.4063 21.3764 18.2231 21.3319L16.8107 20.9895C16.2975 20.865 16.2975 20.135 16.8107 20.0105L18.2231 19.6681C18.4063 19.6236 18.5494 19.4805 18.5938 19.2973L18.9363 17.885Z" fill="white"/>
<path d="M21.3546 9.78388C21.4362 9.44704 21.9153 9.44704 21.997 9.78388L22.2217 10.7107C22.2509 10.831 22.3448 10.9249 22.4651 10.954L23.3919 11.1788C23.7287 11.2605 23.7287 11.7395 23.3919 11.8212L22.4651 12.046C22.3448 12.0751 22.2509 12.169 22.2217 12.2893L21.997 13.2161C21.9153 13.553 21.4362 13.553 21.3546 13.2161L21.1298 12.2893C21.1007 12.169 21.0068 12.0751 20.8865 12.046L19.9597 11.8212C19.6228 11.7395 19.6228 11.2605 19.9597 11.1788L20.8865 10.954C21.0068 10.9249 21.1007 10.831 21.1298 10.7107L21.3546 9.78388Z" fill="white"/>
<path fill-rule="evenodd" clip-rule="evenodd" d="M21.6758 9.94832L21.4923 10.7048C21.419 11.0072 21.1829 11.2432 20.8806 11.3166L20.1241 11.5L20.8806 11.6834C21.1829 11.7568 21.419 11.9928 21.4923 12.2952L21.6758 13.0517L21.8592 12.2952C21.9325 11.9928 22.1686 11.7568 22.471 11.6834L23.2275 11.5L22.471 11.3166C22.1686 11.2432 21.9325 11.0072 21.8592 10.7048L21.6758 9.94832ZM22.0429 9.53872C21.9495 9.15376 21.402 9.15376 21.3087 9.53872L21.0518 10.598C21.0185 10.7354 20.9112 10.8427 20.7737 10.876L19.7145 11.1329C19.3295 11.2262 19.3295 11.7738 19.7145 11.8671L20.7737 12.124C20.9112 12.1573 21.0185 12.2646 21.0518 12.402L21.3087 13.4613C21.402 13.8462 21.9495 13.8462 22.0429 13.4613L22.2997 12.402C22.3331 12.2646 22.4404 12.1573 22.5778 12.124L23.6371 11.8671C24.022 11.7738 24.022 11.2262 23.6371 11.1329L22.5778 10.876C22.4404 10.8427 22.3331 10.7354 22.2997 10.598L22.0429 9.53872Z" fill="white"/>
<path d="M8.92578 21.25C8.51157 21.25 8.17578 20.9142 8.17578 20.5C8.17578 20.0858 8.51157 19.75 8.92578 19.75C9.33999 19.75 9.67578 20.0858 9.67578 20.5C9.67578 20.9142 9.33999 21.25 8.92578 21.25Z" fill="white"/>
<path d="M23.9258 17.5C23.5116 17.5 23.1758 17.1642 23.1758 16.75C23.1758 16.3358 23.5116 16 23.9258 16C24.34 16 24.6758 16.3358 24.6758 16.75C24.6758 17.1642 24.34 17.5 23.9258 17.5Z" fill="white"/>
</g>
</g>
<defs>
<filter id="filter0_d_5204_403" x="0.425781" y="0" width="32" height="32" filterUnits="userSpaceOnUse" color-interpolation-filters="sRGB">
<feFlood flood-opacity="0" result="BackgroundImageFix"/>
<feColorMatrix in="SourceAlpha" type="matrix" values="0 0 0 0 0 0 0 0 0 0 0 0 0 0 0 0 0 0 127 0" result="hardAlpha"/>
<feMorphology radius="2" operator="dilate" in="SourceAlpha" result="effect1_dropShadow_5204_403"/>
<feOffset/>
<feComposite in2="hardAlpha" operator="out"/>
<feColorMatrix type="matrix" values="0 0 0 0 0.00392157 0 0 0 0 0.670588 0 0 0 0 0.509804 0 0 0 0.25 0"/>
<feBlend mode="normal" in2="BackgroundImageFix" result="effect1_dropShadow_5204_403"/>
<feBlend mode="normal" in="SourceGraphic" in2="effect1_dropShadow_5204_403" result="shape"/>
</filter>
<linearGradient id="paint0_linear_5204_403" x1="16.4258" y1="2.38889" x2="17.0672" y2="31.736" gradientUnits="userSpaceOnUse">
<stop stop-color="#01AB82"/>
<stop offset="1" stop-color="#387667"/>
</linearGradient>
<linearGradient id="paint1_linear_5204_403" x1="16.4258" y1="2.38889" x2="17.0672" y2="31.736" gradientUnits="userSpaceOnUse">
<stop stop-color="#01AB82"/>
<stop offset="1" stop-color="#387667"/>
</linearGradient>
<clipPath id="clip0_5204_403">
<rect x="2.42578" y="2" width="28" height="28" rx="6" fill="white"/>
</clipPath>
</defs>
</svg>
