<svg width="20" height="20" viewBox="0 0 20 20" fill="none" xmlns="http://www.w3.org/2000/svg">
<path d="M9.9999 6.25C9.25822 6.25 8.5332 6.46993 7.91652 6.88198C7.29983 7.29404 6.81918 7.87971 6.53536 8.56493C6.25153 9.25016 6.17727 10.0042 6.32196 10.7316C6.46665 11.459 6.82381 12.1272 7.34825 12.6516C7.8727 13.1761 8.54089 13.5332 9.26832 13.6779C9.99574 13.8226 10.7497 13.7484 11.435 13.4645C12.1202 13.1807 12.7059 12.7001 13.1179 12.0834C13.53 11.4667 13.7499 10.7417 13.7499 10C13.7489 9.00575 13.3535 8.05252 12.6504 7.34949C11.9474 6.64645 10.9941 6.25103 9.9999 6.25ZM9.9999 12.5C9.50545 12.5 9.0221 12.3534 8.61098 12.0787C8.19986 11.804 7.87942 11.4135 7.69021 10.9567C7.50099 10.4999 7.45148 9.99722 7.54794 9.51227C7.6444 9.02732 7.88251 8.58186 8.23214 8.23223C8.58177 7.8826 9.02723 7.6445 9.51218 7.54803C9.99713 7.45157 10.4998 7.50108 10.9566 7.6903C11.4134 7.87952 11.8039 8.19995 12.0786 8.61107C12.3533 9.02219 12.4999 9.50554 12.4999 10C12.4999 10.663 12.2365 11.2989 11.7677 11.7678C11.2988 12.2366 10.6629 12.5 9.9999 12.5ZM18.589 8.37578C18.5716 8.28777 18.5354 8.20453 18.483 8.13174C18.4305 8.05894 18.363 7.99829 18.2851 7.9539L15.9546 6.62578L15.9452 3.99921C15.9449 3.90876 15.925 3.81944 15.8868 3.73743C15.8487 3.65542 15.7932 3.58267 15.7241 3.52421C14.8788 2.80913 13.9053 2.26114 12.8554 1.90937C12.7727 1.88139 12.6851 1.87103 12.5981 1.87897C12.5112 1.88691 12.4269 1.91297 12.3507 1.95546L9.9999 3.26953L7.64678 1.95312C7.57049 1.91038 7.48609 1.88413 7.39902 1.87605C7.31195 1.86798 7.22416 1.87826 7.14131 1.90625C6.09221 2.26059 5.11982 2.81067 4.27569 3.52734C4.20675 3.58571 4.15129 3.65833 4.11313 3.7402C4.07496 3.82206 4.05499 3.91123 4.05459 4.00156L4.04287 6.63046L1.7124 7.95859C1.63444 8.00298 1.56694 8.06363 1.5145 8.13642C1.46206 8.20922 1.42591 8.29245 1.4085 8.38046C1.19521 9.45225 1.19521 10.5556 1.4085 11.6273C1.42591 11.7154 1.46206 11.7986 1.5145 11.8714C1.56694 11.9442 1.63444 12.0048 1.7124 12.0492L4.04287 13.3773L4.05225 16.0039C4.05253 16.0944 4.07245 16.1837 4.11062 16.2657C4.14879 16.3477 4.20431 16.4204 4.27334 16.4789C5.11871 17.194 6.09221 17.742 7.14209 18.0937C7.22477 18.1217 7.31239 18.1321 7.39932 18.1241C7.48624 18.1162 7.57054 18.0902 7.64678 18.0477L9.9999 16.7305L12.353 18.0469C12.4462 18.0988 12.5511 18.1257 12.6577 18.125C12.726 18.125 12.7938 18.1139 12.8585 18.0922C13.9075 17.7383 14.8799 17.1888 15.7241 16.4727C15.7931 16.4143 15.8485 16.3417 15.8867 16.2598C15.9249 16.1779 15.9448 16.0888 15.9452 15.9984L15.9569 13.3695L18.2874 12.0414C18.3654 11.997 18.4329 11.9364 18.4853 11.8636C18.5378 11.7908 18.5739 11.7075 18.5913 11.6195C18.8034 10.5486 18.8026 9.4464 18.589 8.37578ZM17.4171 11.1031L15.1851 12.3727C15.0873 12.4283 15.0063 12.5092 14.9507 12.607C14.9054 12.6852 14.8577 12.768 14.8093 12.8461C14.7473 12.9446 14.7142 13.0586 14.714 13.175L14.7022 15.6945C14.1023 16.1657 13.4339 16.5424 12.7202 16.8117L10.4687 15.557C10.3752 15.5053 10.27 15.4784 10.1632 15.4789H10.1483C10.0538 15.4789 9.9585 15.4789 9.86397 15.4789C9.75216 15.4761 9.64162 15.5031 9.54365 15.557L7.29053 16.8148C6.5753 16.5476 5.90508 16.1727 5.30303 15.7031L5.29444 13.1875C5.29405 13.0709 5.26103 12.9567 5.19912 12.8578C5.15069 12.7797 5.10303 12.7016 5.0585 12.6187C5.00328 12.5194 4.92232 12.4369 4.82412 12.3797L2.58975 11.107C2.47412 10.3756 2.47412 9.63061 2.58975 8.89921L4.81787 7.62734C4.91567 7.57173 4.99664 7.49076 5.05225 7.39296C5.09756 7.31484 5.14522 7.23203 5.19365 7.1539C5.25566 7.05538 5.28869 6.9414 5.28897 6.825L5.30069 4.30546C5.90063 3.83433 6.56901 3.45759 7.28272 3.18828L9.53115 4.44296C9.62901 4.49721 9.73963 4.52419 9.85147 4.52109C9.946 4.52109 10.0413 4.52109 10.1358 4.52109C10.2476 4.52388 10.3582 4.49692 10.4562 4.44296L12.7093 3.18515C13.4245 3.4524 14.0947 3.82729 14.6968 4.29687L14.7054 6.81249C14.7058 6.92913 14.7388 7.04333 14.8007 7.14218C14.8491 7.22031 14.8968 7.29843 14.9413 7.38125C14.9965 7.48055 15.0775 7.56314 15.1757 7.62031L17.4101 8.89296C17.5272 9.62492 17.5285 10.3708 17.414 11.1031H17.4171Z" fill="#7E8986"/>
</svg>
